<svg xmlns="http://www.w3.org/2000/svg" viewBox="0 0 1920 1004" fill="none">
  <defs>
    <linearGradient id="blueMetal" x1="0%" y1="0%" x2="100%" y2="100%">
      <stop offset="0%" style="stop-color:#3b72a6;stop-opacity:1" />
      <stop offset="50%" style="stop-color:#1e456f;stop-opacity:1" />
      <stop offset="100%" style="stop-color:#0f2945;stop-opacity:1" />
    </linearGradient>
    <linearGradient id="goldMetal" x1="0%" y1="0%" x2="100%" y2="100%">
      <stop offset="0%" style="stop-color:#d9b364;stop-opacity:1" />
      <stop offset="50%" style="stop-color:#a67c2f;stop-opacity:1" />
      <stop offset="100%" style="stop-color:#7d5b1f;stop-opacity:1" />
    </linearGradient>
    <linearGradient id="silverMetal" x1="0%" y1="0%" x2="100%" y2="100%">
      <stop offset="0%" style="stop-color:#a6aeb6;stop-opacity:1" />
      <stop offset="50%" style="stop-color:#6d757d;stop-opacity:1" />
      <stop offset="100%" style="stop-color:#454a50;stop-opacity:1" />
    </linearGradient>
    <linearGradient id="textSilver" x1="0%" y1="0%" x2="100%" y2="100%">
      <stop offset="0%" style="stop-color:#d0d7de;stop-opacity:1" />
      <stop offset="100%" style="stop-color:#9da3a8;stop-opacity:1" />
    </linearGradient>
    <linearGradient id="textGold" x1="0%" y1="0%" x2="100%" y2="100%">
      <stop offset="0%" style="stop-color:#e6c77e;stop-opacity:1" />
      <stop offset="100%" style="stop-color:#b89954;stop-opacity:1" />
    </linearGradient>
  </defs>

  <g transform="translate(750, 200)">
    <path d="M 0 60 L 210 360 L 420 60 L 360 20 L 210 240 L 60 20 Z" fill="url(#blueMetal)" stroke="#1e456f" stroke-width="4"/>
    <path d="M 210 400 L 390 140 L 450 20 L 360 20 L 210 240 L 210 400 Z M 210 360 L 340 170 L 210 300 L 80 170 L 210 360 Z" fill="url(#goldMetal)" stroke="#a67c2f" stroke-width="4"/>
    <path d="M 30 80 L 210 420 L 390 80 L 420 60 L 210 360 L 0 60 L 30 80 Z" fill="url(#silverMetal)" stroke="#6d757d" stroke-width="4"/>
    <path d="M 190 260 A 20 20 0 1 1 230 260 L 230 310 L 215 310 L 215 330 L 205 330 L 205 310 L 190 310 Z M 200 260 A 10 10 0 1 0 220 260 A 10 10 0 1 0 200 260 Z" fill="#d9b364" transform="translate(0, 20)" stroke="#a67c2f" stroke-width="2"/>
  </g>

  <g transform="translate(550, 700)">
    <text x="0" y="0" font-family="Arial, sans-serif" font-weight="bold" font-size="100" fill="url(#textSilver)" stroke="#454a50" stroke-width="2">VAULT</text>
    <text x="380" y="0" font-family="Arial, sans-serif" font-weight="bold" font-size="100" fill="url(#textGold)" stroke="#7d5b1f" stroke-width="2">PRO</text>
  </g>
</svg>