<svg xmlns="http://www.w3.org/2000/svg" viewBox="0 0 441 492" role="img" aria-label="Logo">
  <path d="M 353 326 L 310 326 L 310 327 L 307 330 L 307 331 L 304 334 L 304 335 L 300 340 L 299 343 L 296 346 L 296 347 L 293 350 L 293 351 L 290 354 L 290 355 L 287 358 L 287 359 L 284 362 L 284 363 L 281 366 L 281 367 L 276 372 L 276 373 L 271 378 L 271 379 L 265 385 L 265 386 L 257 394 L 256 397 L 255 398 L 254 398 L 245 407 L 245 408 L 241 412 L 240 412 L 227 425 L 226 425 L 222 429 L 217 429 L 208 420 L 207 420 L 204 417 L 200 417 L 199 418 L 197 423 L 195 425 L 193 430 L 191 432 L 190 435 L 188 437 L 187 440 L 185 442 L 185 443 L 183 446 L 183 449 L 194 460 L 195 460 L 196 461 L 196 462 L 197 462 L 198 463 L 198 464 L 199 464 L 206 471 L 207 471 L 215 479 L 216 479 L 218 481 L 221 481 L 223 479 L 224 479 L 229 474 L 230 474 L 234 470 L 235 470 L 235 469 L 237 467 L 238 467 L 245 460 L 246 460 L 266 440 L 267 440 L 267 439 L 280 426 L 280 425 L 283 423 L 283 422 L 287 418 L 287 417 L 294 410 L 294 409 L 299 404 L 299 403 L 309 392 L 309 391 L 312 388 L 312 387 L 315 384 L 315 383 L 322 375 L 322 374 L 324 372 L 324 371 L 326 369 L 326 368 L 329 365 L 329 364 L 331 362 L 331 361 L 333 359 L 333 358 L 336 355 L 336 354 L 338 352 L 338 351 L 344 343 L 344 342 L 347 338 L 348 335 L 351 332 L 351 330 L 353 328 Z M 414 184 L 412 184 L 411 183 L 411 182 L 409 182 L 408 181 L 407 181 L 396 175 L 394 175 L 393 174 L 392 174 L 389 172 L 387 172 L 382 169 L 380 169 L 377 167 L 375 167 L 374 166 L 373 166 L 372 165 L 370 165 L 367 163 L 365 163 L 364 162 L 359 161 L 358 160 L 357 160 L 356 159 L 354 159 L 351 157 L 349 157 L 348 156 L 346 156 L 345 155 L 343 155 L 342 154 L 340 154 L 339 153 L 336 153 L 335 152 L 333 152 L 332 151 L 330 151 L 329 150 L 326 150 L 325 149 L 323 149 L 322 148 L 320 148 L 319 147 L 316 147 L 315 146 L 312 146 L 311 145 L 308 145 L 307 144 L 305 144 L 304 143 L 300 143 L 299 142 L 296 142 L 295 141 L 288 141 L 288 142 L 284 147 L 282 152 L 280 154 L 279 157 L 277 159 L 276 162 L 274 164 L 274 165 L 273 166 L 272 169 L 270 171 L 268 176 L 264 181 L 264 183 L 262 185 L 262 186 L 259 190 L 257 195 L 255 197 L 254 200 L 252 202 L 252 203 L 251 204 L 250 207 L 248 209 L 245 216 L 243 218 L 242 221 L 240 223 L 239 226 L 237 228 L 235 233 L 233 235 L 232 238 L 230 240 L 228 245 L 224 250 L 224 251 L 223 252 L 220 259 L 218 261 L 216 266 L 214 268 L 213 271 L 211 273 L 210 276 L 208 278 L 207 281 L 205 283 L 203 288 L 201 290 L 200 293 L 198 295 L 195 302 L 193 304 L 193 305 L 189 312 L 189 314 L 188 315 L 187 315 L 187 316 L 185 318 L 184 321 L 182 323 L 182 324 L 181 325 L 180 328 L 178 330 L 175 337 L 173 339 L 172 342 L 170 344 L 169 347 L 167 349 L 164 356 L 162 358 L 162 359 L 160 361 L 159 364 L 157 366 L 155 371 L 153 373 L 152 376 L 150 378 L 149 381 L 147 383 L 145 388 L 143 390 L 143 391 L 139 398 L 139 401 L 143 405 L 143 406 L 147 410 L 147 411 L 152 416 L 152 417 L 159 424 L 159 425 L 167 433 L 169 433 L 170 432 L 171 429 L 175 424 L 177 419 L 179 417 L 180 414 L 182 412 L 185 405 L 187 403 L 188 400 L 190 398 L 193 391 L 195 389 L 196 386 L 198 384 L 198 383 L 199 382 L 201 377 L 203 375 L 205 370 L 207 368 L 208 365 L 210 363 L 211 360 L 213 358 L 215 353 L 217 351 L 219 346 L 221 344 L 221 343 L 224 339 L 226 334 L 228 332 L 228 331 L 231 327 L 233 322 L 235 320 L 238 313 L 240 311 L 240 310 L 241 309 L 243 304 L 245 302 L 247 297 L 249 295 L 371 295 L 372 294 L 373 291 L 375 289 L 375 287 L 376 286 L 376 285 L 377 284 L 377 283 L 383 272 L 383 270 L 387 263 L 387 261 L 390 256 L 390 254 L 392 251 L 392 249 L 395 244 L 396 239 L 399 234 L 399 232 L 400 231 L 401 226 L 403 223 L 404 218 L 406 215 L 406 212 L 407 211 L 407 209 L 409 206 L 409 203 L 411 200 L 411 197 L 412 196 L 412 194 L 413 193 L 413 191 L 414 190 Z M 312 186 L 317 186 L 318 187 L 321 187 L 322 188 L 325 188 L 326 189 L 328 189 L 329 190 L 331 190 L 332 191 L 335 191 L 336 192 L 338 192 L 341 194 L 346 195 L 349 197 L 351 197 L 354 199 L 356 199 L 359 201 L 361 201 L 368 205 L 368 209 L 367 210 L 367 212 L 365 215 L 365 217 L 364 218 L 363 223 L 361 226 L 361 228 L 358 233 L 358 235 L 355 240 L 355 242 L 353 245 L 353 247 L 352 248 L 352 249 L 351 250 L 348 257 L 347 258 L 280 258 L 279 257 L 274 257 L 273 256 L 273 251 L 275 249 L 276 246 L 280 241 L 281 238 L 283 236 L 283 234 L 285 232 L 286 229 L 288 227 L 289 224 L 291 222 L 292 219 L 294 217 L 296 212 L 298 210 L 299 207 L 301 205 L 302 202 L 304 200 L 307 193 L 309 191 L 309 190 Z M 332 81 L 332 93 L 333 94 L 333 110 L 334 111 L 334 120 L 336 120 L 337 121 L 339 121 L 340 122 L 342 122 L 343 123 L 346 123 L 347 124 L 349 124 L 350 125 L 352 125 L 353 126 L 355 126 L 356 127 L 358 127 L 359 128 L 361 128 L 362 129 L 364 129 L 365 130 L 367 130 L 368 131 L 373 132 L 374 133 L 375 133 L 376 134 L 378 134 L 381 136 L 384 136 L 388 139 L 388 140 L 389 141 L 389 146 L 390 147 L 391 147 L 396 150 L 398 150 L 403 153 L 405 153 L 416 159 L 421 160 L 421 158 L 422 157 L 422 154 L 423 153 L 423 150 L 424 149 L 424 145 L 425 144 L 425 140 L 426 139 L 426 136 L 427 135 L 427 129 L 428 128 L 428 125 L 429 124 L 429 119 L 430 118 L 430 116 L 428 114 L 427 114 L 424 112 L 422 112 L 415 108 L 413 108 L 410 106 L 408 106 L 405 104 L 403 104 L 400 102 L 398 102 L 395 100 L 390 99 L 387 97 L 385 97 L 384 96 L 382 96 L 381 95 L 379 95 L 378 94 L 376 94 L 375 93 L 373 93 L 372 92 L 370 92 L 369 91 L 367 91 L 366 90 L 364 90 L 363 89 L 360 89 L 359 88 L 357 88 L 354 86 L 351 86 L 350 85 L 347 85 L 346 84 L 344 84 L 343 83 L 340 83 L 339 82 L 336 82 L 335 81 Z M 299 10 L 297 10 L 296 11 L 295 11 L 294 12 L 293 12 L 292 13 L 291 13 L 290 14 L 289 14 L 288 15 L 287 15 L 286 16 L 285 16 L 284 17 L 283 17 L 282 18 L 281 18 L 280 19 L 279 19 L 278 20 L 277 20 L 276 21 L 275 21 L 274 22 L 273 22 L 272 23 L 271 23 L 270 24 L 269 24 L 268 25 L 267 25 L 266 26 L 265 26 L 264 27 L 263 27 L 262 28 L 261 28 L 260 29 L 259 29 L 258 30 L 257 30 L 256 31 L 255 31 L 254 32 L 253 32 L 252 33 L 251 33 L 250 34 L 249 34 L 248 35 L 247 35 L 246 36 L 245 36 L 244 37 L 243 37 L 242 38 L 241 38 L 240 39 L 239 39 L 238 40 L 237 40 L 236 41 L 235 41 L 234 42 L 233 42 L 232 43 L 231 43 L 230 44 L 229 44 L 228 45 L 227 45 L 216 51 L 214 51 L 212 53 L 212 55 L 213 56 L 214 56 L 219 60 L 222 61 L 230 67 L 235 69 L 236 70 L 236 77 L 234 79 L 234 80 L 233 81 L 230 88 L 228 90 L 227 93 L 225 95 L 224 98 L 222 100 L 219 107 L 215 112 L 213 117 L 211 119 L 210 122 L 208 124 L 205 131 L 203 133 L 202 136 L 200 138 L 199 141 L 197 143 L 197 144 L 196 145 L 195 148 L 193 150 L 190 157 L 188 159 L 187 162 L 185 164 L 183 169 L 181 171 L 181 172 L 180 173 L 179 176 L 177 178 L 175 183 L 173 185 L 173 186 L 170 190 L 168 195 L 166 197 L 165 200 L 163 202 L 161 207 L 159 209 L 158 212 L 156 214 L 155 217 L 153 219 L 150 226 L 148 228 L 147 231 L 145 233 L 143 238 L 141 240 L 139 245 L 137 247 L 136 250 L 134 252 L 131 259 L 129 261 L 128 264 L 126 266 L 124 271 L 120 276 L 118 281 L 116 283 L 116 285 L 113 289 L 109 289 L 107 287 L 105 282 L 103 280 L 103 279 L 102 278 L 102 277 L 101 276 L 101 275 L 100 274 L 100 273 L 99 272 L 99 271 L 98 270 L 98 269 L 97 268 L 97 267 L 91 256 L 91 254 L 85 243 L 85 241 L 81 234 L 81 232 L 79 229 L 79 227 L 76 222 L 75 217 L 74 216 L 74 215 L 73 214 L 73 212 L 71 209 L 71 207 L 70 206 L 70 204 L 69 203 L 69 201 L 68 200 L 68 198 L 67 197 L 67 195 L 66 194 L 66 192 L 65 191 L 65 189 L 64 188 L 64 186 L 63 185 L 63 183 L 62 182 L 62 179 L 61 178 L 60 173 L 58 171 L 58 166 L 57 165 L 57 161 L 56 160 L 56 158 L 55 157 L 55 153 L 54 152 L 54 149 L 53 148 L 53 145 L 52 144 L 52 139 L 57 136 L 59 136 L 60 135 L 61 135 L 62 134 L 64 134 L 67 132 L 69 132 L 70 131 L 72 131 L 73 130 L 75 130 L 76 129 L 78 129 L 79 128 L 81 128 L 82 127 L 84 127 L 85 126 L 87 126 L 88 125 L 90 125 L 91 124 L 93 124 L 94 123 L 97 123 L 98 122 L 100 122 L 101 121 L 105 121 L 106 120 L 108 120 L 109 119 L 112 119 L 113 118 L 116 118 L 117 117 L 120 117 L 121 116 L 124 116 L 125 115 L 129 115 L 130 114 L 133 114 L 134 113 L 139 113 L 140 112 L 144 112 L 145 111 L 149 111 L 150 110 L 158 110 L 159 109 L 165 109 L 166 108 L 171 108 L 172 107 L 182 107 L 183 106 L 186 106 L 187 105 L 188 102 L 190 100 L 190 99 L 191 98 L 191 97 L 192 96 L 195 89 L 197 87 L 197 86 L 199 83 L 199 81 L 195 78 L 192 77 L 190 75 L 189 75 L 187 73 L 184 72 L 180 69 L 175 69 L 174 70 L 166 70 L 165 71 L 159 71 L 158 72 L 154 72 L 153 73 L 146 73 L 145 74 L 140 74 L 139 75 L 134 75 L 133 76 L 129 76 L 128 77 L 124 77 L 123 78 L 119 78 L 118 79 L 115 79 L 114 80 L 111 80 L 110 81 L 107 81 L 106 82 L 102 82 L 101 83 L 98 83 L 97 84 L 94 84 L 91 86 L 88 86 L 87 87 L 84 87 L 83 88 L 81 88 L 80 89 L 77 89 L 76 90 L 74 90 L 73 91 L 71 91 L 70 92 L 68 92 L 67 93 L 62 94 L 59 96 L 57 96 L 56 97 L 54 97 L 53 98 L 51 98 L 50 99 L 45 100 L 42 102 L 40 102 L 39 103 L 38 103 L 35 105 L 33 105 L 30 107 L 25 108 L 16 113 L 14 113 L 13 114 L 12 114 L 10 116 L 10 124 L 11 125 L 11 129 L 12 130 L 12 135 L 13 136 L 13 139 L 14 140 L 14 144 L 15 145 L 15 149 L 16 150 L 16 153 L 17 154 L 17 157 L 18 158 L 18 161 L 19 162 L 19 165 L 20 166 L 20 170 L 21 171 L 21 174 L 22 175 L 22 178 L 23 179 L 23 181 L 24 182 L 24 184 L 25 185 L 25 188 L 26 188 L 27 189 L 27 195 L 28 196 L 28 199 L 30 202 L 30 205 L 31 206 L 31 208 L 33 211 L 33 213 L 34 214 L 34 216 L 35 217 L 35 219 L 36 220 L 37 225 L 39 228 L 39 230 L 40 231 L 40 233 L 42 236 L 42 238 L 44 241 L 44 243 L 48 250 L 48 252 L 49 253 L 49 254 L 50 255 L 50 257 L 53 262 L 53 264 L 55 266 L 55 268 L 56 269 L 56 270 L 57 271 L 57 272 L 58 273 L 58 274 L 59 275 L 59 276 L 60 277 L 60 278 L 61 279 L 61 280 L 62 281 L 62 282 L 63 283 L 63 284 L 64 285 L 64 286 L 65 287 L 65 288 L 66 289 L 66 290 L 67 291 L 67 292 L 68 293 L 68 294 L 69 295 L 69 296 L 70 297 L 73 304 L 75 306 L 75 307 L 76 308 L 79 315 L 81 317 L 82 320 L 84 322 L 84 323 L 85 324 L 86 327 L 88 329 L 89 332 L 92 335 L 93 338 L 97 343 L 98 346 L 100 348 L 100 349 L 102 351 L 102 352 L 104 354 L 104 355 L 106 357 L 106 358 L 109 361 L 109 362 L 111 364 L 111 365 L 115 369 L 115 370 L 117 370 L 118 369 L 118 368 L 120 366 L 121 363 L 123 361 L 123 359 L 125 357 L 127 352 L 129 350 L 131 345 L 133 343 L 135 338 L 137 336 L 140 329 L 144 324 L 144 323 L 145 322 L 146 319 L 148 317 L 151 310 L 155 305 L 155 303 L 157 301 L 158 298 L 160 296 L 161 293 L 163 291 L 166 284 L 168 282 L 170 277 L 172 275 L 174 270 L 176 268 L 179 261 L 181 259 L 183 254 L 185 252 L 188 245 L 192 240 L 192 239 L 193 238 L 194 235 L 196 233 L 198 228 L 200 226 L 201 223 L 203 221 L 206 214 L 208 212 L 210 207 L 212 205 L 213 202 L 215 200 L 216 197 L 218 195 L 218 194 L 219 193 L 220 190 L 222 188 L 225 181 L 227 179 L 228 176 L 230 174 L 232 169 L 234 167 L 236 162 L 238 160 L 238 159 L 239 158 L 240 155 L 242 153 L 244 148 L 246 146 L 247 143 L 249 141 L 251 136 L 253 134 L 255 129 L 257 127 L 260 120 L 262 118 L 262 117 L 264 115 L 265 112 L 267 110 L 267 109 L 268 108 L 269 105 L 271 103 L 273 98 L 274 97 L 279 97 L 283 100 L 286 101 L 294 107 L 297 108 L 299 110 L 300 110 L 301 111 L 305 111 L 305 107 L 304 106 L 304 90 L 303 89 L 303 72 L 302 71 L 302 57 L 301 56 L 301 36 L 300 35 L 300 24 L 299 23 Z" fill="#114670" fill-rule="evenodd"/>
</svg>
